<?xml version="1.0" encoding="UTF-8"?>
<svg id="Layer_1" data-name="Layer 1" xmlns="http://www.w3.org/2000/svg" viewBox="0 0 200 50">
  <defs>
    <style>
      .cls-1 {
        fill: #fff;
      }
    </style>
  </defs>
  <path class="cls-1" d="M20.79,5.66c-2.1-.94-4.63-1.41-7.59-1.41H0v33.85l4.83-.03v-10.25h8.37c2.96,0,5.49-.48,7.59-1.43,1.97-.85,3.65-2.26,4.83-4.05,1.13-1.76,1.69-3.86,1.69-6.31s-.56-4.56-1.69-6.33c-1.17-1.8-2.85-3.21-4.83-4.05ZM20.09,21.66c-1.6,1.32-3.94,1.98-7.03,1.98H4.83v-15.18h8.22c3.09,0,5.44.67,7.03,1.99s2.39,3.19,2.39,5.61c0,2.41-.8,4.27-2.39,5.6Z"/>
  <path class="cls-1" d="M54.07,25.73c.04,1.59-.29,3.18-.97,4.62-.6,1.23-1.56,2.24-2.76,2.9-1.29.69-2.74,1.03-4.21.99-2.19,0-3.9-.63-5.1-1.89-1.21-1.26-1.81-3.14-1.81-5.66v-14.21h-4.64v14.73c0,2.52.46,4.61,1.38,6.26.86,1.62,2.22,2.92,3.87,3.71,1.8.84,3.78,1.25,5.77,1.21,1.98.03,3.92-.45,5.66-1.4,1.22-.67,2.27-1.62,3.06-2.75v3.86h4.39V12.48h-4.63v13.25Z"/>
  <path class="cls-1" d="M72.58,16.82v-4.34h-4.45v25.63h4.64v-12.78c0-2.79.72-4.93,2.18-6.41,1.46-1.48,3.42-2.22,5.9-2.22h.51c.19,0,.37.02.56.05v-4.5c-2.45,0-4.51.47-6.19,1.4-1.34.73-2.42,1.84-3.14,3.17Z"/>
  <rect class="cls-1" x="115.71" y="2.22" width="4.64" height="35.88"/>
  <path class="cls-1" d="M139.08,32.94l-8.95-20.47h-4.83l11.31,25.56-.82,1.81c-.65,1.48-1.34,2.51-2.08,3.1-.81.6-1.8.91-2.81.87-.85,0-1.68-.16-2.46-.48-.79-.33-1.51-.81-2.13-1.4l-1.98,3.48c.87.79,1.89,1.39,3,1.76,1.15.4,2.36.61,3.57.6,1.24.01,2.47-.21,3.63-.65,1.17-.48,2.21-1.24,3.04-2.2,1.06-1.27,1.9-2.71,2.49-4.26l12.43-28.19h-4.56s-8.84,20.47-8.84,20.47Z"/>
  <path class="cls-1" d="M195.31,4.25v19.06c0,3.77-.83,6.53-2.49,8.27-1.66,1.74-4.02,2.61-7.09,2.61s-5.38-.87-7.03-2.61-2.49-4.5-2.49-8.27V4.25h-4.84v19.24c0,4.91,1.27,8.63,3.82,11.18,2.55,2.55,6.05,3.82,10.49,3.82,4.49,0,7.99-1.29,10.52-3.83,2.53-2.55,3.79-6.27,3.79-11.17V4.25h-4.69Z"/>
  <path class="cls-1" d="M98.46,11.82c-7.14,0-12.94,5.79-12.94,12.93,0,7.14,5.79,12.94,12.93,12.94h1.54l.13-.02h.04l.15-.02.14-.02h.19l.15-.02h.03l.11-.02h.04l.11-.02h.03l.14-.03h.03l.11-.02h.04l.13-.03.14-.03h.04l.11-.03h.04l.13-.04h.02l.12-.04h.04l.11-.03h.03l.14-.04h.03l.11-.04h.04l.11-.04h.02l.14-.05h.03l.1-.04h.04l.26-.1h.04l.1-.04h.03l.13-.06h.02l.11-.05.05-.02.08-.04h.03l.12-.06h.03l.1-.05.04-.02.11-.05h.02l.12-.07.03-.02.09-.05h.04l.12-.07.03-.02.11-.07.09-.05h.03l.12-.07.1-.06.09-.06.03-.02.05-.03.12-.07.03-.02.09-.06.03-.02.1-.07h.02l.06-.04.08-.05.08-.06.03-.02.11-.08.09-.07.04-.03.08-.06.03-.02.11-.08.03-.02.08-.06.04-.03.08-.07.02-.02s.07-.06.1-.09l.03-.03.08-.06.03-.03.09-.08h.02l.09-.09.03-.03.07-.07.03-.03.1-.09s.02-.02.03-.03l.05-.05.05-.05.07-.07.03-.03.09-.09.03-.03.06-.07.03-.04.07-.07c-1.62,1.41-3.59,2.34-5.7,2.7l-.23.04c-6.23,1.2-12.14-2.23-13.19-7.66l-.02-.11s-.02-.07-.02-.1c-.35-1.71-.05-3.49.85-4.98l.45-.68.22-.29c.23-.33.49-.64.78-.93.39-.36.92-.83,1.19-1.05l.02-.02c.47-.96.45-2.09-.05-3.04,0,0,1.13.32.83,2.27,0,0,0,0,0,0,0,.04.02.08.06.09.02,0,.03,0,.05,0,.49-.23,2.18-1,2.9-1.05.01,0,.03,0,.04,0,.9-.7,1.44-1.75,1.51-2.88,0,0,.91.63-.55,2.54h0s-.03.08,0,.11c.02,0,.04,0,.06,0,.66-.1,2.81-.35,4.69.19.02,0,.04,0,.06,0,.18-.1,1.26-.74,1.55-1.75,0,0,.24.99-.82,1.74-.04.02-.05.07-.02.11,0,.01.02.02.04.03.56.17,2.48.81,3.49,1.48.02.01.05.01.07,0,.47-.19.89-.49,1.21-.88-.16.41-.44.77-.81,1.01,0,0,0,0,0,0-.04.02-.06.06-.04.1,0,.02.02.03.03.03.61.32,1.14.76,1.58,1.29-.76-.61-1.6-1.11-2.49-1.5,0,0,0,0,0,0-.04-.01-.09,0-.1.05,0,.02,0,.04,0,.06.21.42.65,1.38.21,1.77.02-.86-.37-1.69-1.05-2.22h-.02c-1.45-.61-2.98-1-4.54-1.15-.05,0-.09.03-.09.07,0,.03,0,.06.03.07.55.48,2.16,1.98,1.9,2.94,0,0-1.12-2.58-3.63-3.07h-.02c-.14.02-2.46.22-4.19,1.37,0,0,0,0,0,0-.04.03-.04.08-.02.11.01.02.03.03.06.04,1.08.12,5.76.85,6.21,3.98,0,0-1.87-3.34-7.17-3.34-.02,0-.04,0-.05,0-.74.63-1.37,1.38-1.85,2.23,1.06,1.77,2.7,3.12,4.65,3.81,1.43.49,3.51,1.31,7.06.18l.96-.34c1.32-.53,2.54-1.28,3.6-2.23.48-.41.92-.85,1.32-1.33.21-.23.4-.46.58-.7.3-.41.58-.83.84-1.27.11-.18.2-.35.28-.51.02-.03.04-.07.06-.11v-.41c-1.73-5.33-6.7-8.95-12.3-8.95Z"/>
</svg>