<?xml version="1.0" encoding="UTF-8"?>
<svg id="Layer_1" data-name="Layer 1" xmlns="http://www.w3.org/2000/svg" viewBox="0 0 64 64">
  <defs>
    <style>
      .cls-1 {
        fill: #a57d13;
      }
    </style>
  </defs>
  <g id="Layer_2" data-name="Layer 2">
    <g id="Layer_3" data-name="Layer 3">
      <path class="cls-1" d="M55.42,24.6c-.03.07-.07.13-.11.2-.15.29-.33.61-.52.94-.47.81-.99,1.6-1.56,2.35-.33.44-.69.87-1.07,1.3,0,0-.95,1.16-2.47,2.46-2.26,1.93-3.93,3.01-6.68,4.15l-1.78.64c-6.59,2.09-10.45.57-13.1-.34-1.15-.39-5.38-1.92-8.62-7.07,1.31-2.33,3.14-3.89,3.44-4.13.03-.02.06-.03.1-.03,9.82-.03,13.3,6.19,13.3,6.19-.81-5.8-9.5-7.15-11.5-7.39-.09-.01-.14-.09-.13-.18,0-.04.03-.08.07-.11,3.2-2.14,7.5-2.52,7.78-2.55.01,0,.03,0,.04,0,4.64.91,6.73,5.69,6.73,5.69.47-1.79-2.5-4.57-3.53-5.47-.07-.05-.07-.15-.02-.22.03-.04.08-.06.14-.05,4.12.3,8.18,2.04,8.42,2.14.01,0,.02.01.03.02,1.26.99,1.97,2.52,1.94,4.12.83-.72.02-2.52-.38-3.28-.02-.04-.02-.08,0-.12.03-.08.12-.12.2-.09,2.26.88,4.62,2.79,4.62,2.79-.8-.99-1.8-1.8-2.93-2.39-.03-.02-.05-.04-.06-.07-.03-.07,0-.16.08-.19,0,0,0,0,0,0,1-.51,1.51-1.88,1.51-1.88-.65.92-1.94,1.5-2.24,1.63-.04.02-.09.01-.13-.01-1.88-1.26-5.44-2.43-6.47-2.75-.03-.01-.05-.03-.07-.06-.04-.07-.02-.16.05-.2,0,0,0,0,0,0,1.98-1.4,1.53-3.23,1.53-3.23-.54,1.87-2.54,3.05-2.88,3.25-.03.02-.07.02-.11,0-3.49-1.01-7.48-.54-8.7-.35-.08.01-.16-.05-.17-.13,0-.04,0-.09.04-.12,2.7-3.54,1.02-4.72,1.02-4.72-.11,2.1-1.13,4.05-2.8,5.34-.02.01-.04.02-.07.02-1.34.09-4.47,1.53-5.38,1.95-.07.03-.16,0-.19-.07-.01-.03-.02-.06,0-.1.56-3.6-1.54-4.2-1.54-4.2.92,1.77.96,3.87.09,5.66,0,.01-.02.02-.03.03-.19.15-.44.36-.72.6-1.05.91-2.01,1.92-2.88,3l-.04.05c-.14.19-.28.37-.41.54l-.83,1.22c-1.75,2.93-2.14,5.88-1.57,9.25.01.06.02.12.03.18.01.07.03.14.04.21,1.94,10.08,12.89,16.44,24.46,14.21.14-.03.28-.06.43-.09,4.03-.69,7.67-2.47,10.57-5h-.01c-.04.06-.09.11-.13.15-.02.02-.04.05-.06.07l-.12.13-.06.06c-.06.06-.11.12-.17.18-.02.02-.04.04-.05.06-.04.04-.08.09-.13.13-.03.03-.07.07-.1.1s-.06.06-.1.1c-.02.02-.03.03-.05.05-.06.06-.12.12-.18.17-.02.02-.04.04-.06.06-.04.04-.09.08-.13.12l-.06.06c-.06.05-.12.11-.18.16l-.03.03c-.06.05-.11.1-.17.15-.02.02-.04.04-.06.06-.05.04-.09.08-.14.12l-.06.05c-.06.05-.13.11-.19.16l-.04.04c-.05.04-.1.09-.16.13l-.06.05-.15.13s-.03.03-.05.04c-.07.05-.13.11-.2.16-.02.01-.04.03-.05.04l-.15.12-.07.05c-.06.05-.12.09-.18.13l-.03.02c-.07.05-.14.1-.2.15-.02.01-.04.03-.06.04-.05.04-.1.08-.16.11-.05.04-.1.07-.15.1-.04.02-.08.05-.11.08-.01,0-.02.02-.03.02-.06.04-.13.09-.19.13-.02.01-.04.03-.06.04-.05.04-.11.07-.17.11-.02.01-.04.02-.06.04-.07.05-.14.09-.22.14-.03.02-.06.04-.09.05-.02.01-.04.03-.06.04-.06.04-.12.08-.18.11s-.12.08-.19.11h0c-.07.04-.15.09-.22.13l-.06.03c-.06.03-.12.07-.17.1-.07.04-.14.08-.21.12-.02.01-.04.02-.06.03,0,0-.01,0-.02.01-.08.04-.15.08-.23.13-.02.01-.04.02-.06.03-.06.03-.12.06-.18.1-.02.01-.04.02-.06.03-.08.04-.15.08-.23.12,0,0-.02,0-.03.01-.07.04-.14.07-.21.1l-.07.03c-.06.03-.12.06-.19.09-.02,0-.03.02-.05.03-.08.04-.16.08-.24.11-.02,0-.04.02-.05.02-.05.02-.1.05-.14.07-.04.02-.08.03-.11.05-.07.03-.14.06-.21.09h-.03c-.08.05-.16.08-.24.12l-.06.03c-.06.03-.13.05-.19.08-.02,0-.04.02-.07.03-.16.07-.33.13-.49.19l-.07.03c-.06.02-.13.05-.19.07l-.06.02c-.08.03-.17.06-.25.09h-.04c-.07.04-.14.06-.21.09l-.07.02c-.07.02-.14.05-.2.07l-.05.02c-.08.03-.17.05-.25.08-.02,0-.04.01-.06.02-.07.02-.13.04-.2.06-.02,0-.05.01-.07.02-.08.02-.15.05-.23.07h-.03c-.09.03-.17.06-.26.08l-.07.02c-.07.02-.13.04-.2.05l-.07.02c-.09.02-.17.04-.26.07,0,0-.01,0-.02,0-.08.02-.16.04-.24.06l-.07.02c-.07.02-.14.03-.2.05h-.06c-.09.03-.17.05-.26.07-.02,0-.03,0-.05,0-.07.02-.14.03-.22.04h-.08c-.07.03-.15.04-.22.06-.02,0-.03,0-.05,0-.09.02-.18.03-.26.05-.02,0-.04,0-.07.01l-.21.03h-.08c-.08.02-.17.04-.25.05h-.02c-.09.01-.18.03-.27.04h-.08c-.07.02-.17.03-.24.04h-.04c-.09.01-.18.02-.27.03h-.03c-.08.01-.16.02-.24.03h-.08c-.07.01-.14.02-.21.02h-.06c-.09.01-.18.02-.27.02h-.06c-.07,0-.15.01-.22.02h-.08c-.08,0-.16.01-.23.01h-.04c-.09,0-.18,0-.27.01-.02,0-.05,0-.07,0-.07,0-.14,0-.21,0h-.08c-.09,0-.19,0-.28,0-13.26,0-24-10.75-24-24S19.31,8,32.57,8c10.68,0,19.73,6.97,22.85,16.6Z"/>
    </g>
  </g>
</svg>